# xmcd
#
# Track frame offsets: 
#        150
#        11333
#        22172
#        33244
#        45448
#        57791
#        68929
#        80913
#        94151
#        106289
#        120238
#        127921
#        139738
#        141717
#        143768
#        156275
#        162892
#        179367
#
# Disc length: 2551 seconds
#
# Revision: 0
# Processed by: cddbd v1.5.2PL0 Copyright (c) Steve Scherf et al.
# Submitted via: ExactAudioCopy v0.95b3
#
DISCID=f509f512
DTITLE=The Monkees - The Monkees Complete 26 of 28
DYEAR=1900
DGENRE=
TTITLE0=Steam Engine
TTITLE1=Steam Engine (alt. mix 1)
TTITLE2=Steam Engine (alt. mix 2)
TTITLE3=Steam Engine (alt. mix 3)
TTITLE4=Steam Engine (alt. mix 4)
TTITLE5=Steam Engine (alt. mix 5)
TTITLE6=Steam Engine (4.1 composite)
TTITLE7=Storybook Of You
TTITLE8=Storybook Of You (Tommy Boyce demo)
TTITLE9=Storybook Of You (alt. mix)
TTITLE10=The Good Earth
TTITLE11=War Games
TTITLE12=We'll Be Back In A Minute #1
TTITLE13=We'll Be Back In A Minute #2
TTITLE14=You're So Good
TTITLE15=Last Train To Clarksville (Johnny Cash Show 7-19-69)
TTITLE16=Nine Times Blue (Johnny Cash Show 7-19-69)
TTITLE17=Everybody Loves A Nut (Johnny Cash Show 7-19-69)
EXTD=
EXTT0=
EXTT1=
EXTT2=
EXTT3=
EXTT4=
EXTT5=
EXTT6=
EXTT7=
EXTT8=
EXTT9=
EXTT10=
EXTT11=
EXTT12=
EXTT13=
EXTT14=
EXTT15=
EXTT16=
EXTT17=
PLAYORDER=
